<svg width="388" height="381" viewBox="0 0 388 381" fill="none" xmlns="http://www.w3.org/2000/svg">
<path d="M0 116.2C0 20.5093 20.5093 0 116.2 0H233.8C329.491 0 350 20.5093 350 116.2V233.8C350 329.491 329.491 350 233.8 350H116.2C20.5093 350 0 329.491 0 233.8V116.2Z" fill="white"/>
<circle cx="303" cy="296" r="85" fill="#0090ED"/>
<path d="M298.242 348.371H307.129C310.4 348.371 312.842 346.369 313.525 343.244L315.918 333.234C317.383 332.746 318.799 332.16 320.068 331.574L328.809 336.945C331.494 338.606 334.668 338.313 336.914 336.115L343.164 329.865C345.41 327.619 345.703 324.299 343.946 321.662L338.623 312.971C339.209 311.652 339.746 310.334 340.186 308.967L350.293 306.574C353.467 305.891 355.371 303.449 355.371 300.178V291.438C355.371 288.264 353.467 285.773 350.293 285.09L340.283 282.697C339.795 281.184 339.209 279.816 338.721 278.645L344.043 269.807C345.801 267.072 345.557 263.898 343.213 261.652L336.865 255.402C334.619 253.352 331.738 252.961 329.004 254.475L320.068 259.992C318.799 259.357 317.432 258.82 315.967 258.283L313.525 248.127C312.842 245.002 310.4 243 307.129 243H298.242C294.971 243 292.529 245.002 291.846 248.176L289.453 258.186C287.988 258.723 286.523 259.26 285.254 259.943L276.367 254.475C273.633 252.961 270.752 253.303 268.457 255.402L262.158 261.652C259.814 263.898 259.57 267.072 261.328 269.807L266.65 278.645C266.162 279.816 265.576 281.184 265.088 282.697L255.078 285.09C251.953 285.773 250 288.264 250 291.438V300.178C250 303.449 251.953 305.891 255.078 306.574L265.186 308.967C265.625 310.334 266.162 311.652 266.748 312.971L261.426 321.662C259.668 324.299 259.961 327.619 262.207 329.865L268.457 336.115C270.703 338.313 273.877 338.606 276.562 336.945L285.303 331.574C286.572 332.16 287.988 332.746 289.453 333.234L291.846 343.244C292.529 346.369 294.971 348.371 298.242 348.371ZM302.686 312.629C293.359 312.629 285.742 305.012 285.742 295.637C285.742 286.408 293.359 278.742 302.686 278.742C312.012 278.742 319.629 286.408 319.629 295.637C319.629 305.012 312.012 312.629 302.686 312.629Z" fill="white"/>
<path d="M42 262.412C42 248.897 44.9099 246 58.4866 246H110.513C124.09 246 127 248.897 127 262.412V284.588C127 298.103 124.09 301 110.513 301H58.4866C44.9099 301 42 298.103 42 284.588V262.412Z" fill="#E4431E"/>
<path d="M132.798 132.549C132.798 118.788 135.722 115.839 149.363 115.839H201.637C215.278 115.839 218.202 118.788 218.202 132.549V155.128C218.202 168.889 215.278 171.839 201.637 171.839H149.363C135.722 171.839 132.798 168.889 132.798 155.128V132.549Z" fill="#E4431E"/>
<path d="M42 132.549C42 118.788 44.9237 115.839 58.565 115.839H110.839C124.48 115.839 127.404 118.788 127.404 132.549V155.128C127.404 168.889 124.48 171.839 110.839 171.839H58.565C44.9237 171.839 42 168.889 42 155.128V132.549Z" fill="#0090ED"/>
<path d="M224 132.71C224 118.949 226.924 116 240.565 116H292.839C306.48 116 309.404 118.949 309.404 132.71V155.29C309.404 169.051 306.48 172 292.839 172H240.565C226.924 172 224 169.051 224 155.29V132.71Z" fill="#0090ED"/>
<path d="M131.899 199.388C131.899 185.627 134.823 182.677 148.464 182.677H200.738C214.379 182.677 217.303 185.627 217.303 199.388V221.967C217.303 235.728 214.379 238.677 200.738 238.677H148.464C134.823 238.677 131.899 235.728 131.899 221.967V199.388Z" fill="#250699"/>
<path d="M42 199.388C42 185.627 44.9237 182.677 58.565 182.677H110.839C124.48 182.677 127.404 185.627 127.404 199.388V221.967C127.404 235.728 124.48 238.677 110.839 238.677H58.565C44.9237 238.677 42 235.728 42 221.967V199.388Z" fill="#0090ED"/>
<path d="M223.596 65.7104C223.596 51.9494 226.52 49 240.161 49H292.435C306.076 49 309 51.9494 309 65.7104V88.2896C309 102.051 306.076 105 292.435 105H240.161C226.52 105 223.596 102.051 223.596 88.2896V65.7104Z" fill="#250699"/>
<path d="M132.798 65.7104C132.798 51.9494 135.722 49 149.363 49H201.637C215.278 49 218.202 51.9494 218.202 65.7104V88.2896C218.202 102.051 215.278 105 201.637 105H149.363C135.722 105 132.798 102.051 132.798 88.2896V65.7104Z" fill="#E4431E"/>
<path d="M42 65.7104C42 51.9494 44.9237 49 58.565 49H110.839C124.48 49 127.404 51.9494 127.404 65.7104V88.2896C127.404 102.051 124.48 105 110.839 105H58.565C44.9237 105 42 102.051 42 88.2896V65.7104Z" fill="#0090ED"/>
</svg>
