<svg width="388" height="381" viewBox="0 0 388 381" fill="none" xmlns="http://www.w3.org/2000/svg">
<path d="M0 116.2C0 20.5093 20.5093 0 116.2 0H233.8C329.491 0 350 20.5093 350 116.2V233.8C350 329.491 329.491 350 233.8 350H116.2C20.5093 350 0 329.491 0 233.8V116.2Z" fill="white"/>
<circle cx="303" cy="296" r="85" fill="#0090ED"/>
<path d="M42 262.412C42 248.897 44.9099 246 58.4866 246H110.513C124.09 246 127 248.897 127 262.412V284.588C127 298.103 124.09 301 110.513 301H58.4866C44.9099 301 42 298.103 42 284.588V262.412Z" fill="#E4431E"/>
<path d="M132.798 132.549C132.798 118.788 135.722 115.839 149.363 115.839H201.637C215.278 115.839 218.202 118.788 218.202 132.549V155.128C218.202 168.889 215.278 171.839 201.637 171.839H149.363C135.722 171.839 132.798 168.889 132.798 155.128V132.549Z" fill="#E4431E"/>
<path d="M42 132.549C42 118.788 44.9237 115.839 58.565 115.839H110.839C124.48 115.839 127.404 118.788 127.404 132.549V155.128C127.404 168.889 124.48 171.839 110.839 171.839H58.565C44.9237 171.839 42 168.889 42 155.128V132.549Z" fill="#0090ED"/>
<path d="M224 132.71C224 118.949 226.924 116 240.565 116H292.839C306.48 116 309.404 118.949 309.404 132.71V155.29C309.404 169.051 306.48 172 292.839 172H240.565C226.924 172 224 169.051 224 155.29V132.71Z" fill="#0090ED"/>
<path d="M131.899 199.388C131.899 185.627 134.823 182.677 148.464 182.677H200.738C214.379 182.677 217.303 185.627 217.303 199.388V221.967C217.303 235.728 214.379 238.677 200.738 238.677H148.464C134.823 238.677 131.899 235.728 131.899 221.967V199.388Z" fill="#250699"/>
<path d="M42 199.388C42 185.627 44.9237 182.677 58.565 182.677H110.839C124.48 182.677 127.404 185.627 127.404 199.388V221.967C127.404 235.728 124.48 238.677 110.839 238.677H58.565C44.9237 238.677 42 235.728 42 221.967V199.388Z" fill="#0090ED"/>
<path d="M223.596 65.7104C223.596 51.9494 226.52 49 240.161 49H292.435C306.076 49 309 51.9494 309 65.7104V88.2896C309 102.051 306.076 105 292.435 105H240.161C226.52 105 223.596 102.051 223.596 88.2896V65.7104Z" fill="#250697"/>
<path d="M132.798 65.7104C132.798 51.9494 135.722 49 149.363 49H201.637C215.278 49 218.202 51.9494 218.202 65.7104V88.2896C218.202 102.051 215.278 105 201.637 105H149.363C135.722 105 132.798 102.051 132.798 88.2896V65.7104Z" fill="#E4431E"/>
<path d="M42 65.7104C42 51.9494 44.9237 49 58.565 49H110.839C124.48 49 127.404 51.9494 127.404 65.7104V88.2896C127.404 102.051 124.48 105 110.839 105H58.565C44.9237 105 42 102.051 42 88.2896V65.7104Z" fill="#0090ED"/>
<path d="M303.025 347.1C331.004 347.1 354.051 324.004 354.051 296.025C354.051 268.047 330.955 245 303.025 245C275.047 245 252 268.047 252 296.025C252 324.004 275.047 347.1 303.025 347.1ZM303.025 335.625C281.102 335.625 263.523 317.949 263.523 296.025C263.523 274.102 281.053 256.475 303.025 256.475C324.949 256.475 342.576 274.102 342.625 296.025C342.625 317.949 324.949 335.625 303.025 335.625ZM279.148 302.861H303.025C305.418 302.861 307.322 300.957 307.322 298.516V267.363C307.322 264.971 305.418 263.066 303.025 263.066C300.584 263.066 298.68 264.971 298.68 267.363V294.219H279.148C276.707 294.219 274.852 296.123 274.852 298.516C274.852 300.957 276.707 302.861 279.148 302.861Z" fill="white"/>
</svg>
