<svg width="13" height="22" viewBox="0 0 13 22" fill="none" xmlns="http://www.w3.org/2000/svg">
<path d="M12.861 10.9941C12.861 10.4694 12.678 10.0423 12.2509 9.63968L2.89191 0.48808C2.57464 0.158612 2.18417 0 1.70829 0C0.768741 0 0 0.756522 0 1.69609C0 2.15976 0.195221 2.58684 0.536884 2.9285L8.83435 10.9819L0.536884 19.0597C0.195221 19.3892 0 19.8162 0 20.2921C0 21.2317 0.768741 21.9882 1.70829 21.9882C2.17198 21.9882 2.57464 21.8296 2.89191 21.5001L12.2509 12.3485C12.678 11.9459 12.861 11.5066 12.861 10.9941Z" fill="#0072BC"/>
</svg>
