<svg width="22" height="22" viewBox="0 0 22 22" fill="none" xmlns="http://www.w3.org/2000/svg">
<path d="M1.72522 12.7252H9.27476V20.2748C9.27476 21.2217 10.0531 22 11 22C11.9469 22 12.7252 21.2217 12.7252 20.2748V12.7252H20.2747C21.2217 12.7252 22 11.9599 22 11C22 10.0531 21.2217 9.27478 20.2747 9.27478H12.7252V1.72525C12.7252 0.778305 11.9469 0 11 0C10.0531 0 9.27476 0.778305 9.27476 1.72525V9.27478H1.72522C0.778305 9.27478 0 10.0531 0 11C0 11.9599 0.778305 12.7252 1.72522 12.7252Z" fill="#0072BC"/>
</svg>
