<svg width="14" height="23" viewBox="0 0 14 23" fill="none" xmlns="http://www.w3.org/2000/svg">
<path d="M0 11.2074C0 11.7298 0.199021 12.1776 0.62194 12.5881L10.1625 21.9172C10.4984 22.253 10.8964 22.4147 11.3691 22.4147C12.3393 22.4147 13.1105 21.6435 13.1105 20.6858C13.1105 20.2006 12.9115 19.7653 12.5632 19.4294L4.11726 11.1949L12.5632 2.98531C12.9239 2.63702 13.1105 2.20165 13.1105 1.72899C13.1105 0.771196 12.3393 0 11.3691 0C10.8964 0 10.4984 0.161689 10.1625 0.497547L0.62194 9.82667C0.199021 10.2371 0.0124393 10.6725 0 11.2074Z" fill="#0072BC"/>
</svg>
