<svg width="20" height="24" viewBox="0 0 20 24" fill="none" xmlns="http://www.w3.org/2000/svg">
<path d="M9.51919 15.6098C10.12 15.6098 10.6068 15.1127 10.6068 14.5429V4.27796L10.5136 2.75529L11.104 3.54253L12.4609 4.98232C12.637 5.17912 12.9063 5.29306 13.1653 5.29306C13.6832 5.29306 14.1182 4.90981 14.1182 4.37117C14.1182 4.10187 14.0147 3.8947 13.8282 3.6979L10.3686 0.372915C10.0785 0.0932348 9.80923 0 9.51919 0C9.23953 0 8.95985 0.0932348 8.68017 0.372915L5.22053 3.6979C5.02373 3.8947 4.92014 4.10187 4.92014 4.37117C4.92014 4.90981 5.35519 5.29306 5.86275 5.29306C6.13206 5.29306 6.40138 5.17912 6.58783 4.98232L7.93439 3.54253L8.53516 2.75529L8.44194 4.27796V14.5429C8.44194 15.1127 8.91842 15.6098 9.51919 15.6098ZM3.53216 24H15.4959C17.8058 24 19.028 22.7777 19.028 20.4886V10.4307C19.028 8.14156 17.8058 6.91929 15.4959 6.91929H12.7717V9.29134H15.2784C16.1692 9.29134 16.6664 9.74709 16.6664 10.6897V20.24C16.6664 21.1722 16.1692 21.628 15.2784 21.628H3.74968C2.8485 21.628 2.37202 21.1722 2.37202 20.24V10.6897C2.37202 9.74709 2.8485 9.29134 3.74968 9.29134H6.2978V6.91929H3.53216C1.23262 6.91929 0 8.14156 0 10.4307V20.4886C0 22.7777 1.23262 24 3.53216 24Z" fill="#0072BC"/>
</svg>
